<?xml version="1.0" standalone="no"?><!DOCTYPE svg PUBLIC "-//W3C//DTD SVG 1.1//EN" "http://www.w3.org/Graphics/SVG/1.1/DTD/svg11.dtd"><svg t="1685241024530" class="icon" viewBox="0 0 1024 1024" version="1.1" xmlns="http://www.w3.org/2000/svg" p-id="1292" xmlns:xlink="http://www.w3.org/1999/xlink" width="200" height="200"><path d="M155.53 633.72c-6.34 0-12.75-1.67-18.57-5.19-17.02-10.28-22.49-32.4-12.22-49.42L376.5 162.06l20.16-0.23c12.61-0.1 24.15 6.18 30.87 16.85l0.07 0.12 187.35 299.95L692.75 376l10.95-14.37 18.13 0.16c11.29 0.12 22.01 5.61 28.69 14.71l146.93 199.89c11.78 16.02 8.33 38.55-7.69 50.33-16.02 11.78-38.55 8.33-50.33-7.69l-118.41-161.1-80.09 105.77-11.38 15.17-19.08-0.83a36.022 36.022 0 0 1-28.96-16.93L397.52 266.54 186.38 616.31c-6.76 11.2-18.66 17.4-30.85 17.4z" fill="#474747" p-id="1293"></path><path d="M821.15 553.78c-5.23 0-10.54-1.14-15.57-3.56-17.92-8.61-25.47-30.12-16.86-48.04 12.35-25.7 18.61-53.33 18.61-82.1 0-104.69-85.17-189.86-189.86-189.86-51.4 0-99.54 20.21-135.54 56.91-13.92 14.19-36.72 14.41-50.91 0.49s-14.41-36.72-0.49-50.91c24.1-24.57 52.31-43.88 83.82-57.4 32.65-14 67.34-21.1 103.12-21.1 69.95 0 135.7 27.24 185.16 76.7 49.46 49.46 76.7 115.22 76.7 185.16 0 39.66-8.65 77.77-25.71 113.28-6.2 12.89-19.07 20.42-32.47 20.42z" fill="#474747" p-id="1294"></path><path d="M210.79 655.51m36 0l478.31 0q36 0 36 36l0 0q0 36-36 36l-478.31 0q-36 0-36-36l0 0q0-36 36-36Z" fill="#4F95FC" p-id="1295"></path><path d="M391.61 773.78m36 0l57.07 0q36 0 36 36l0 0q0 36-36 36l-57.07 0q-36 0-36-36l0 0q0-36 36-36Z" fill="#4F95FC" p-id="1296"></path><path d="M585.25 773.78m36 0l220.85 0q36 0 36 36l0 0q0 36-36 36l-220.85 0q-36 0-36-36l0 0q0-36 36-36Z" fill="#4F95FC" p-id="1297"></path></svg>