<?xml version="1.0" standalone="no"?><!DOCTYPE svg PUBLIC "-//W3C//DTD SVG 1.1//EN" "http://www.w3.org/Graphics/SVG/1.1/DTD/svg11.dtd"><svg t="1685241437969" class="icon" viewBox="0 0 1024 1024" version="1.1" xmlns="http://www.w3.org/2000/svg" p-id="1326" xmlns:xlink="http://www.w3.org/1999/xlink" width="200" height="200"><path d="M562.73841134 498.42635618L590.7271226 536.03598131v20.71595162l-0.24351275 0.6761806v0.67618241l-0.24568642 0.67618236v0.6761806l-0.18480954 0.6805315-0.24568645 0.42832052-0.43049417 0.6761824-0.24568641 0.42832053-0.2456882 0.68052971-0.42832051 0.48919917-0.43049421 0.43266963-0.49354828 0.42832054-0.18480777 0.49354828-0.49354827 0.42832053-0.67618238 0.24568641-0.43049421 0.42832231-0.43049597 0.43266785-0.67835604 0.24133911-0.49354651 0.24568641-0.67618238 0.18698321-0.43049597 0.24568643-0.67835606 0.24568641-0.43049419 0.18263411-0.6761824 0.2456864-0.67835603 0.24568642h-0.67835605l-0.67618239 0.1826359h-1.10885024l-0.67618241 0.24568642h-1.3567121l-0.67835607-0.24568642h-1.35453842l-0.4935465-0.1826359h-0.67618237l-0.67835606-0.24568642-0.67835605-0.2456864-0.43049421-0.18263411-0.67618236-0.24568641-0.67835607-0.24568643-0.43049597-0.18698321-0.6609614-0.25003554-0.49137461-0.24133732-0.43049418-0.43266962-0.6783561-0.42832053-0.43049594-0.24568641-0.49137285-0.42832233-0.43049415-0.49354648-0.24568824-0.4283223-0.43049417-0.43266785-0.43049597-0.48919916-0.24568642-0.68053152-0.42832053-0.42832053-0.24568643-0.67618239-0.24568638-0.42832052-0.18480959-0.68052972-0.24568638-0.67618239v-0.6761824l-0.24568643-0.67618059V498.42635618z m-49.76567825 51.5637582v2.46121503l-0.24351275 0.67618061-0.24568642 0.67618239-0.18480955 0.67618237-0.24568644 0.67618063-0.18480778 0.68053148-0.4913746 0.67618061-0.18698145 0.67618239-0.4913746 0.42832054-0.4304942 0.67618238-0.49354827 0.49354827-0.42832053 0.43266964-0.43266963 0.42832053-0.49137282 0.4935465-0.61530374 0.42832231-0.49137286 0.24568641-0.6805315 0.42832051-0.42832052 0.24568641-0.67835605 0.42832054-0.67835605 0.2456882-0.6761824 0.18698143-0.43049419 0.24133909-0.67835603 0.24568642-0.6761824 0.18698322h-0.67835605l-0.67835605 0.24568643h-0.92186881l-0.67835605 0.24568639h-2.71124874l-0.6761824-0.24568639h-0.68052972l-0.67618241-0.24568643h-0.67618238l-0.6805297-0.18698322-0.6761824-0.24568642-0.67835607-0.24133909-0.67835603-0.18698143-0.67618239-0.2456882-0.43049419-0.42832054-0.67835606-0.24568641-0.42832053-0.42832051-0.73923469-0.24568641-0.43049597-0.42832231-0.67835606-0.4935465-0.42832053-0.42832053-0.49354826-0.43266964-0.43049419-0.49354827-0.43049598-0.67618238-0.24568641-0.42832054-0.42832054-0.67618239-0.2456864-0.67618061-0.43049597-0.68053148-0.24568644-0.67618063-0.18480776-0.67618237-0.24568642-0.67618239v-0.67618061l-0.24568821-0.92621791v-1.53499712H373.70318901v-11.92341221h10.14924968V247.86728107l13.71931674 22.0617918v268.13545383h83.59868837v-49.77872379l0.24568642-0.67618238v-1.352363l0.24568638-0.67618236v-1.1066766l0.18480961-0.67618237 0.24351094-0.49137284v-0.67618239l0.24568641-0.43049419 0.18698322-0.6761824 0.2456864-0.43049596 0.24568644-0.67618062 0.1826359-0.49137461 0.24568643-0.67618059 0.24568638-0.43049597 0.43049422-0.6761824 0.67835603-1.10667659 0.6761824-1.10667657 0.67835604-1.35236478 0.92404248-1.16755522 1.10667835-1.35236299 0.92404248-1.53717255 27.92783085-35.82893988 19.80712833 27.90174157-23.87074186 31.77184907v43.6952631h10.15142513v11.92341222h-10.14924969z m131.39669986-218.60241648v47.0131192l-0.24568641 0.4913728v0.6761824l-0.2456882 0.67618239v0.4304942l-0.24351097 0.43049597-0.18480956 0.49137284-0.24568643 0.67618236-0.18480778 0.43049421-0.49354826 0.43049597-0.18480778 0.24568641-0.24568643 0.43049419-0.43049597 0.49137462-0.49137282 0.18480777-0.18480957 0.49137281-0.49354647 0.18480958-0.43049599 0.43049419-0.43049419 0.24568822-0.49137462 0.24568639-0.43049417 0.24568643-0.43049599 0.18480775-0.49354648 0.24568645-0.43049598 0.18263588h-0.42832054l-0.67835605 0.24568642h-0.49354827l-0.43049419 0.24568641h-1.10667837l-0.4935465 0.24568639h-1.10667658l-0.43049595-0.24568639h-1.17190435l-0.67618058-0.24568641h-0.430496l-0.4304942-0.24568642h-0.67835601l-0.49354829-0.18263588-0.42832053-0.24568645-0.43049595-0.18480775-0.43049421-0.24568643-0.67835605-0.24568639-0.49137461-0.24568822-0.43049421-0.43049419-0.49354826-0.18480958-0.4304942-0.49137281-0.18480956-0.18480777-0.49354649-0.49137462-0.42832233-0.43049419-0.24568641-0.24568641-0.43049419-0.43049597-0.24568641-0.43049421-0.43049599-0.67618236-0.2456864-0.49137284-0.2456864-0.43049597-0.18263412-0.4304942-0.24568819-0.67618239-0.1848078-0.6761824-0.2456864-0.4913728v-0.67618242l-0.24568641-0.67618059v-27.65605512l-27.67997256-18.0068747v123.15858738l-63.7937337-87.3905244v-27.90174154l-0.24351274-0.43049599V337.89948093l-0.18480778-0.24568641v-0.43049598l-0.2456882-0.2456864v-0.43049421l-0.24568643-0.24568642v-0.18480955l-0.18480777-0.24568642-0.24568641-0.2456864-0.2456864-0.18480956v-0.24568644l-0.18480958-0.2456864h-0.24568641l-0.24351276-0.1826341h-2.21552859l-0.49137284 0.1826341h-0.18480778l-0.49354827 0.2456864-0.18480778 0.24568644-11.93428411 7.86632147-11.99516095-17.82206516v-77.61958849H441.49531025l-11.93428231-13.76714982h83.41387881v79.46332608l27.93000629-20.03542009 0.43049598-0.18480958 0.4935465-0.24568641 0.42832053-0.2456864 0.67835604-0.2456864 0.43049597-0.18480959 0.67835607-0.24568641 0.49137282-0.18480776 0.43049598-0.24568641 0.67835606-0.24568819h0.67835604l1.10667658-0.4304942 1.16972888-0.24568641 1.35236477-0.18480956 1.35236301-0.24568642 1.35453844-0.24568642h2.70472779l1.29365978-0.18263411h1.59804941l1.35453845 0.18263411h2.95041418l1.35453846 0.24568642 1.53717077 0.24568642 1.35236476 0.18480956 1.35453666 0.24568641 1.59805121 0.24568641 1.35236298 0.43049598 1.35453843 0.24568641 1.35236299 0.43049417 1.35453845 0.18480959 1.35236477 0.4913728 1.35236299 0.43049599 1.35453847 0.43049419 1.10667658 0.67618238 1.10885024 0.49137285 1.1675552 0.43049598 61.75649367 35.83328893z m-196.97329431 25.87319617l9.90573873-7.86632145 13.96500315 19.78973367-11.93428412 7.86632146-0.67835606 0.24568642-0.67618236 0.24568641-0.92404247 0.18480957-0.67835608 0.24568642-0.67618237 0.2456864h-1.78503264l-0.67835605 0.18480777-0.67835606-0.18480777h-1.10885023l-0.49137462-0.2456864h-0.67835605l-0.42832052-0.24568642h-0.43266963l-0.49137285-0.18480957-0.43049596-0.24568641-0.4304942-0.24568642-0.49137281-0.18480957-0.43266964-0.49137283-0.42832233-0.18263409-0.49354649-0.24568644-0.18480955-0.43049596-0.49137282-0.24568642-0.18698325-0.43049418-0.49354647-0.49137463-0.18263411-0.18480776-0.24568642-0.49137282-0.18480957-0.43049597-0.24568641-0.43049421-0.24568641-0.49137461-0.24568641-0.43049419-0.18480956-0.43049597-0.24568643-0.49137282v-0.43049599l-0.24568643-0.43049418-0.1826341-0.49137285v-4.48758672l0.1826341-0.67618241v-0.43049415l0.24568643-0.49137465 0.24568643-0.43049419 0.18480956-0.67618239v-0.43049597l0.24568641-0.43049418 0.49354648-0.49137281 0.18480957-0.43049601 0.24568641-0.43049597 0.42832052-0.49137282 0.24568641-0.4304942 0.430496-0.43049597 0.24568639-0.49137283 0.43049597-0.43049597 0.4935465-0.24568642 0.43919242-0.42832053z m105.43870941-77.43478069h-0.67835605l-0.67835606-0.24568641h-2.03289451l-0.67835603-0.24568643h-0.42832052l-0.67835606-0.18480776h-0.67835608l-0.4283205-0.24568643-0.67835605-0.2456882-0.49354829-0.18480778-0.67835606-0.24568641-0.4283205-0.24568641-0.43049598-0.18263413-0.67835604-0.24568637-0.48050096-0.25003556-0.43049598-0.1826341-0.42832054-0.24568643-0.49354826-0.43049597-0.4304942-0.24568643-0.43049597-0.43049595-0.49354649-0.24568641-0.42832231-0.43049422-0.4304942-0.24568819-0.49354826-0.43049417-0.18480778-0.49354829-0.49354828-0.18263411-0.18480776-0.49137284-0.49137461-0.43049596-0.18480779-0.43049418-0.49354828-0.43049596-0.18480776-0.49137285-0.49354828-0.43049598-0.1848078-0.43049419-0.24351271-0.49137283-0.18480781-0.43049597-0.24568639-0.43049597-0.67835608-1.16755524-0.2456864-0.86099016-0.43049597-1.16755521-0.49137284-0.86099016-0.18480955-1.16755522-0.24568641-1.1066766-0.18480779-1.10667656-0.2456864-1.16755521v-1.10667658l-0.24568821-1.10667836V254.8073864l0.24568821-1.10667837v-1.16755522l0.2456864-1.10667658 0.18480779-1.10667658 0.24568641-1.10667658 0.42832231-1.16755522 0.24568641-1.10667836 0.43049417-1.16755343 0.430496-1.10667836 0.49354647-1.10667661 0.43049598-0.92186878 0.42832053-1.10667659 0.67835605-0.92186881 0.67835605-0.86099014 0.6761824-1.16755522 0.67835604-0.86099017 0.67835609-0.67618239 0.49354646-0.49137282 0.1826359-0.43049598 0.49354649-0.43049421 0.43049597-0.24568639 0.4304942-0.43049596 0.49354826-0.49137287 0.42832054-0.18480954 0.43049598-0.49137283 0.49354648-0.18480778 0.43049598-0.49137463 0.43049421-0.18480776 0.4913746-0.24568641 0.43049419-0.24568642 0.430496-0.43049597 0.67835603-0.2456864 0.49354648-0.1848078 0.42832232-0.24568817 0.67835605-0.24568644h0.43049419l0.67618239-0.18480778 0.49354649-0.2456864 0.67835606-0.24568641h0.43049595l0.6761824-0.18480958h1.35671212l0.43049419-0.24568641h4.31147541l0.67618238 0.24568641h1.53934619l0.73705927 0.18480958h0.61530375l0.67835605 0.24568641 0.67618238 0.2456864 0.67835605 0.18480778h0.67835605l0.67835605 0.24568644 0.67618063 0.24568817 0.49354825 0.1848078 0.67835607 0.2456864 0.67618239 0.43049597 0.43049419 0.24568642 0.67835605 0.24568641 0.43049596 0.18480776 0.49137285 0.49137463 0.67835605 0.18480778 0.43049598 0.49137283 0.43049417 0.18480954 0.43049599 0.49137287 0.73705921 0.43049596 0.43049602 0.24568639 0.43049419 0.43049421 0.49354827 0.43049598 0.18480776 0.49137282 0.49137461 0.43049597 0.43049419 0.24568642 0.43049602 0.4304942 0.24568638 0.43049597 0.43049418 0.49354827 0.49137461 0.67618059 0.18480779 0.43049599 0.49354828 0.43049419 0.18480777 0.49137461 0.24568643 0.43049419 0.43049596 0.43049596 0.24568641 0.67618062 0.24568643 0.43049598 0.18263413 0.49137281 0.24568639 0.6761824 0.2456882 0.43049598 0.18480778 0.49137282 0.2456864 0.61530377 0.24568644 1.1675552 0.43049597 1.10667661 0.18480776 1.16755519 0.24351275 1.10667658 0.24568641 1.10667838v5.83994972l-0.24568641 1.16755521-0.24351275 1.10667657-0.18480776 1.1066766-0.24568642 1.1675552-0.43049599 1.10667659-0.2456864 0.43049597-0.18480778 0.67618241-0.2456882 0.49354649-0.24568639 0.67618239-0.18263413 0.43049417-0.24568643 0.43049599-0.24568641 0.67618238-0.43049596 0.49137282-0.24568643 0.43049597-0.18480777 0.43049421-0.49354828 0.6761824-0.18480779 0.49137281-0.49137461 0.43049599-0.18480776 0.43049419-0.49354828 0.49137282-0.43049419 0.43049596-0.430496 0.43049599-0.4913728 0.49137284-0.18480777 0.43049418-0.49354829 0.43049599-0.4304942 0.43049596-0.43049597 0.49137283-0.73705922 0.18263413-0.43049599 0.49354826-0.43049597 0.4304942-0.4304942 0.24568639-0.70009803 0.42614688-0.49137461 0.24568641-0.67835606 0.43049595-0.43049422 0.24568643-0.67618234 0.43049597-0.4304942 0.24568643-0.6761824 0.1826341-0.67835605 0.24568642-0.67618238 0.24568642-0.67835606 0.18263412-0.67835604 0.24568641-0.67618062 0.24568641-0.67835605 0.18480957-0.67835604 0.2456864-0.67835607 0.24568642h-0.67618239l-0.67835604 0.18480958h-0.92186881l-0.67835604 0.2456864h-2.46121503l-0.67835606 0.24568641h-0.90882325z m-63.72850772 35.76588933l-35.62021642-51.74639234h35.62021642v51.74639234z m-81.38533521-33.98520404l29.77157022 43.88007087h-29.77157022v-43.88007087z m3.81357978 105.33652226h1.35453668l0.49354827-0.18263588h0.67835607l0.1826341-0.24568645 0.24568641-0.18480775h0.24568641l0.18480956-0.24568643 0.24568642-0.24568639h0.18480778l0.24568819-0.24568822 0.24568642-0.18480778 0.2456864-0.24568641 0.18263411-0.18480958 0.24568643-0.24568638v-0.24568643l0.18698323-0.18480777 0.24351275-0.49137462 0.24568639-0.43049419 0.24568643-0.67618238v-0.43049421l0.18480778-0.67618236v-1.16755523l-0.18480778-0.43049597v-0.6761806l-0.24568643-0.430496-0.24568639-0.4913728-0.24351275-0.43049599-0.18698323-0.24568643v-0.18480778l-0.24568643-0.24568638-0.18263411-0.24568643-0.2456864-0.18480956-0.24568642-0.24568643-0.24568819-0.24568641-0.18480778-0.18263409h-0.24568642l-0.18480956-0.24568644-0.24568641-0.24568817h-0.24568641l-0.1826341-0.18480782h-0.49354831l-0.18480776-0.24568639h-1.17190433l-0.18263413-0.24568642h-0.67835601l-0.49354651 0.24568642h-0.85881651l-0.49354826 0.24568639h-0.18698145l-0.24351275 0.18480782h-0.43049598l-0.2456864 0.24568817-0.2456864 0.24568644h-0.18263416l-0.24568639 0.18263409-0.24568642 0.24568641-0.18698324 0.24568643-0.2456864 0.18480956v0.24568643l-0.24351274 0.24568638-0.18480956 0.18480778-0.24568643 0.24568643-0.2456864 0.43049599-0.18480778 0.4913728v0.430496l-0.24351274 0.6761806v2.27423356l0.24351274 0.43049421v0.67618238l0.18480778 0.43049419 0.2456864 0.49137462 0.24568643 0.18480777 0.18480956 0.24568643 0.24351274 0.24568638v0.18480958l0.2456864 0.24568641 0.18698324 0.18480778 0.24568642 0.24568822h0.24568639l0.18263416 0.24568639 0.2456864 0.24568643h0.2456864l0.43049598 0.18480775 0.24351275 0.24568645h0.68052971l0.1826341 0.18263588h1.35453844z" fill="#231814" p-id="1327"></path><path d="M344.1120792 158.14164623c127.03087037-94.64371575 306.89959044-68.52483321 401.63462327 58.38427994 94.73285915 126.90911311 68.59006094 306.60607095-58.43863578 401.312839-127.03087037 94.64154209-306.89959044 68.46178087-401.69550191-58.44515855-94.73503281-126.90911311-68.52700864-306.60824463 58.49951442-401.25196039z m55.24253521 33.98520404L670.3904757 555.21258669c84.70753862-78.05008268 98.42685536-209.07716698 27.99088493-303.35126717-70.3729199-94.33497706-199.98893444-118.54924516-299.02674622-59.73446925z m232.71309252 391.66148491L361.03184565 220.70477419c-84.70753862 78.05008268-98.42685536 209.07499154-28.05176356 303.41214404 70.43597219 94.27192475 200.04763764 118.54924516 299.08762484 59.67141695z" fill="#D71718" p-id="1328"></path><path d="M859.45396278 973.5799914H171.90747815V63.46749206h687.54648463v910.11249934z m-676.66887034-10.87978791h665.78908417V74.34510457H182.78509244v888.35509892z" fill="#D71718" p-id="1329"></path><path d="M220.15990305 722.0033831h581.1967765v199.36493424H220.15990305z" fill="#D71718" p-id="1330"></path><path d="M262.42235442 771.41683866v14.01283623h14.88687194c-4.48976043 10.75150787-11.19504942 19.42011633-20.11586704 25.87319615 4.73762048 3.56354429 8.42726934 7.19013908 11.01024164 10.75150971 6.70528901-5.71601882 11.62771905-11.6733767 14.82599332-17.75901463v12.41261134h14.88687195v-15.6695906c5.41380288 5.0354891 7.81196559 7.19013908 7.19883552 6.45090619l8.61207892-9.64918044c-2.52209364-2.8873619-6.08998526-5.8986547-10.51886704-9.15563214l-5.2920474 4.30277717v-7.55975638h13.90412452v-14.01283627h-13.90412452v-2.14812719c0-2.52209364 0.30873871-4.85720409 0.98492112-7.00750495 0.30656505-1.04362427 0.30656505-1.78285898 0-2.15247631-0.67835604-0.36961737-1.78503264-0.73488556-3.38308385-1.04362428h-11.99733641v12.3539064h-21.09861267z m61.39339909 14.01283623c-4.80067457 10.75150787-10.70367661 19.42011633-17.71770433 25.87319615 5.10506415 3.93315982 8.42726934 7.00315584 10.0274942 9.15563216 5.41380288-5.0398382 10.21230198-12.04734314 14.39549911-21.02034117v17.76336374h14.82381788v-13.45623747c5.47468151 6.45090438 11.50378815 11.49074259 18.20907717 15.05428687 1.96549308-4.67022084 4.48758676-9.82964087 7.68803644-15.61088563-10.21012833-6.82052171-17.40896561-12.71917643-21.59216098-17.75901465h17.28503468v-14.01283623h-22.02265515v-2.6416737c0-2.58297051 0.43049597-4.85285498 1.41324164-7.00750674v-1.10885023c-0.67835604-0.73488556-1.78285898-1.28713701-3.38308384-1.59587573h-12.42565692v12.3539064h-13.90412453v14.01283623h7.20318463z m-38.87936932 67.3551043c-6.70528901 6.82487082-14.82381965 12.54088964-24.4208179 17.21111051 5.10723782 4.30277717 9.10562541 8.41639926 11.99516094 12.41261139 10.21230198-8.29681566 19.50056329-14.93470505 27.80607538-19.97236779 1.9067899-1.0479734 2.89171102-1.78285898 2.89171102-2.15247454 0-1.41324163-3.99838758-3.93315982-11.99733643-7.49887957h16.73278321v11.86470907c0.67835604 3.86793389-2.3372841 5.52903735-9.04257306 4.78980265 1.9067899 4.30277717 3.13739741 9.15998127 3.81357799 14.56508771 1.60022486 0.36961737 4.30495263 0.36961737 8.12070432 0a208.44229489 208.44229489 0 0 0 7.69021011-1.10450293c3.81357802-1.41324163 5.7203679-3.38090837 5.72036792-5.90300204v-24.21426811h12.98225747l-8.6120789 8.60338067c9.53394593 5.35075058 17.71335521 12.35390821 24.41864424 21.02034121l11.9973364-13.52146164c-1.90896356-2.1481272-8.61425259-7.49887778-20.11586706-16.10226024h21.03990953v-12.96486285h-101.56207908v12.96486285h20.5420139z m65.2069771-31.28047624h-70.92952048v12.96921195h70.92952048v-12.96921195z m90.67141927 40.37523155h-16.73060958v-60.83897215c0-4.67022084 0.49354827-8.23811246 1.41324163-10.75585704v-1.59587753c-0.30656505-0.73923469-1.41324163-1.29148614-3.32002974-1.59587574h-13.90412629v74.78875613h-18.70262362v15.11733915h110.23503484v-15.11733915h-42.69077365v-45.72163303h31.67835834v-15.11733915h-31.67835834V775.72179129c0-4.30277717 0.36961737-8.05112922 0.9849211-11.30810847v-1.59587575c-0.31091237-0.67618238-6.08998526-1.04362427-17.28720836-1.04362606v100.10535349z m102.73180797-89.35384382c9.59699822 10.38189233 15.9326699 19.05049897 19.13094595 25.86884706-8.61207891 29.806356-23.80551413 52.36386972-45.52160603 67.85082626 4.79849913 3.19392694 9.10562541 7.68151189 12.98008204 13.45623564 19.43751099-15.4239042 33.8351838-35.58107977 43.12126967-60.35194668 14.08675863 31.95883231 29.09756149 52.42257471 45.0302314 61.39557277 2.89171102-6.45090438 7.07490635-12.22997726 12.48653556-17.20676318-16.30011358-10.38623966-28.78882283-25.13613693-37.40090171-44.18880959-2.58297051-5.0354891-4.61369134-8.96865071-6.21174075-11.86035991-0.67835604-1.04362427-1.59805119-2.64167547-2.89171101-4.85285497-10.88848438-20.40503744-20.29850115-34.60050778-28.29744819-42.52988154-3.81357802 4.30277717-7.93372286 8.11418153-12.42565693 11.30810845-0.36961737 0.37179101-0.36961737 0.74140836 0 1.11102569z m151.07989726 9.15345851h-35.00273902v100.72717823h15.31736797v-37.73355608c3.57006705 2.1524763 7.50540055 5.0398382 11.99733459 8.60338068 3.19827425-2.8873619 9.10562541-11.49074259 17.77858297-25.81014208 7.62715781 10.38623966 13.04096069 18.31561341 16.30011358 23.66201488a694.79532864 694.79532864 0 0 1 10.02749419-12.3539064v22.05961635c0.98274743 4.30277717-0.9849211 6.08563615-5.72254335 5.40945553h-6.27479305a78.66103911 78.66103911 0 0 1 3.81575347 17.2067614c17.28503469 0.73923469 25.46661762-3.93315982 24.48169652-14.01283444V781.67914919h-35.92243234v-10.81673564c0-3.56789162 0.12393094-6.45525348 0.4304942-8.6033807 0.36744368-0.67618238 0.49137281-1.41324163 0.4913728-2.15247631 0.61530374-1.41324163-3.32003154-2.1481272-11.99516094-2.1481272h-5.72254159v23.72071985z m36.41815428 54.39024146c-3.81357802-4.67022084-9.72092916-11.30810847-17.71553067-19.91149095-2.27640724-2.21335494-3.87445665-3.80923067-4.79849912-4.852855 0.92404246-5.0398382 1.72198031-10.2644842 2.40033643-15.61088563h20.11586703v40.37523158z m-36.41815428-40.37523158c-1.59805119 18.98962212-8.18158294 33.73951762-19.68537105 44.12575729v-44.12575729h19.68537105z" fill="#FFFFFF" p-id="1331"></path></svg>